# xmcd CD database file
#
# Track frame offsets:
#	150
#	14415
#	28439
#	36492
#	50053
#	68687
#	91066
#	100505
#	113042
#	126232
#	139008
#	149123
#	170504
#	181188
#	194480
#	208201
#	217716
#	233977
#
# Disc length: 3378 seconds
#
# Revision: 0
# Processed by: cddbd v1.5.1PL2 Copyright (c) Steve Scherf et al.
# Submitted via: CDex 1.51
#
DISCID=0e0d3012
DTITLE=John Denver - John Denver Greatest Hits
DYEAR=1900
DGENRE=Country
TTITLE0=Thank God I'm A Country Boy
TTITLE1=Take Me Home, Country Road
TTITLE2=The Music Is You
TTITLE3=Annie's Song
TTITLE4=Rocky Mountain High
TTITLE5=Sweet Surrender
TTITLE6=The Eagle And The Hawk
TTITLE7=This Old Guitar
TTITLE8=Rhymes And Reasons
TTITLE9=Forest Lawn
TTITLE10=Grandma's Feather Bed
TTITLE11=My Sweet Lady
TTITLE12=Mother Nature's Son
TTITLE13=Summer
TTITLE14=Rocky Mountain Suite
TTITLE15=Blue Grass
TTITLE16=Farewell Andromeda (Welcome To My Morning)
TTITLE17=Poems, Prayers And Promises
EXTD=
EXTT0=
EXTT1=
EXTT2=
EXTT3=
EXTT4=
EXTT5=
EXTT6=
EXTT7=
EXTT8=
EXTT9=
EXTT10=
EXTT11=
EXTT12=
EXTT13=
EXTT14=
EXTT15=
EXTT16=
EXTT17=
PLAYORDER=
